<svg width="64" height="64" viewBox="0 0 40 40" fill="none" xmlns="http://www.w3.org/2000/svg">
  <path d="M20 3C20 3 8 5 8 15C8 31 20 37 20 37C20 37 32 31 32 15C32 5 20 3 20 3Z" fill="#facc15" stroke="#1e40af" stroke-width="2.2"/>
  <path d="M20 6C20 6 11 8 11 15C11 27 20 33 20 33C20 33 29 27 29 15C29 8 20 6 20 6Z" fill="#2563eb" stroke="#fff" stroke-width="1.2"/>
  <polygon points="20,14 21.8,18.2 26.8,18.6 22.9,21.7 24.2,26.2 20,23.5 15.8,26.2 17.1,21.7 13.2,18.6 18.2,18.2" fill="#fff" stroke="#facc15" stroke-width="0.7"/>
</svg>
